<svg xmlns="http://www.w3.org/2000/svg" viewBox="0 0 1920 1920" width="1920" height="1920">
  <path d="M 474 413 L 598 722 L 1218 1073 L 1196 1054 L 1195 1054 L 1189 1048 L 1182 1043 L 1176 1037 L 1169 1032 L 1156 1020 L 1149 1015 L 1136 1003 L 1129 998 L 1116 986 L 1109 981 L 1103 975 L 1096 970 L 1090 964 L 1083 959 L 1070 947 L 1063 942 L 1050 930 L 1043 925 L 1030 913 L 1023 908 L 1010 896 L 1003 891 L 990 879 L 983 874 L 970 862 L 963 857 L 950 845 L 943 840 L 930 828 L 923 823 L 910 811 L 903 806 L 890 794 L 889 794 L 877 783 L 870 778 L 857 766 L 856 766 L 831 744 L 830 744 L 818 733 L 817 733 L 811 727 L 804 722 L 791 710 L 784 705 L 771 693 L 764 688 L 751 676 L 744 671 L 731 659 L 730 659 L 660 591 L 659 591 L 613 546 L 612 546 L 598 532 L 598 531 L 597 531 L 587 521 L 586 521 Z M 413 384 L 412 388 L 405 402 L 405 404 L 402 409 L 402 411 L 398 418 L 398 420 L 392 432 L 392 434 L 388 441 L 388 443 L 385 448 L 385 450 L 381 457 L 381 459 L 375 471 L 375 473 L 371 480 L 371 482 L 368 487 L 368 489 L 365 494 L 365 496 L 354 519 L 354 521 L 351 526 L 351 528 L 348 533 L 348 535 L 345 540 L 345 542 L 341 549 L 341 551 L 334 565 L 334 567 L 331 572 L 331 574 L 327 581 L 327 583 L 324 588 L 324 590 L 321 595 L 321 597 L 317 604 L 317 606 L 314 611 L 314 613 L 311 618 L 311 620 L 300 643 L 300 645 L 297 650 L 297 652 L 294 657 L 294 659 L 290 666 L 290 668 L 287 673 L 287 675 L 284 680 L 284 682 L 273 705 L 273 707 L 270 712 L 270 714 L 267 719 L 267 721 L 256 744 L 256 746 L 253 751 L 253 753 L 250 758 L 250 760 L 246 767 L 246 769 L 243 774 L 243 776 L 240 781 L 240 783 L 236 790 L 236 792 L 233 797 L 233 799 L 230 804 L 230 806 L 226 813 L 226 815 L 219 829 L 219 831 L 216 836 L 216 838 L 213 843 L 213 845 L 209 852 L 209 854 L 206 859 L 206 861 L 203 866 L 203 868 L 199 875 L 199 877 L 196 882 L 196 884 L 192 892 L 193 894 L 196 894 L 201 896 L 205 896 L 206 897 L 209 897 L 210 898 L 213 898 L 214 899 L 217 899 L 218 900 L 221 900 L 226 902 L 230 902 L 231 903 L 234 903 L 235 904 L 238 904 L 239 905 L 242 905 L 247 907 L 251 907 L 252 908 L 255 908 L 256 909 L 259 909 L 260 910 L 263 910 L 268 912 L 272 912 L 273 913 L 276 913 L 277 914 L 280 914 L 281 915 L 284 915 L 285 916 L 288 916 L 293 918 L 297 918 L 298 919 L 301 919 L 302 920 L 305 920 L 306 921 L 309 921 L 314 923 L 318 923 L 319 924 L 322 924 L 323 925 L 326 925 L 327 926 L 330 926 L 331 927 L 334 927 L 339 929 L 343 929 L 344 930 L 347 930 L 348 931 L 351 931 L 352 932 L 355 932 L 360 934 L 364 934 L 365 935 L 368 935 L 369 936 L 372 936 L 373 937 L 376 937 L 377 938 L 380 938 L 385 940 L 389 940 L 390 941 L 393 941 L 394 942 L 397 942 L 398 943 L 401 943 L 402 944 L 405 944 L 410 946 L 414 946 L 415 947 L 418 947 L 419 948 L 422 948 L 423 949 L 426 949 L 427 950 L 430 950 L 431 951 L 434 951 L 439 953 L 443 953 L 444 954 L 447 954 L 448 955 L 451 955 L 452 956 L 455 956 L 456 957 L 459 957 L 464 959 L 468 959 L 469 960 L 472 960 L 473 961 L 476 961 L 477 962 L 480 962 L 481 963 L 484 963 L 489 965 L 493 965 L 494 966 L 497 966 L 498 967 L 501 967 L 502 968 L 505 968 L 506 969 L 509 969 L 514 971 L 518 971 L 519 972 L 522 972 L 523 973 L 526 973 L 527 974 L 530 974 L 531 975 L 534 975 L 539 977 L 543 977 L 544 978 L 547 978 L 548 979 L 551 979 L 552 980 L 555 980 L 556 981 L 559 981 L 564 983 L 568 983 L 569 984 L 572 984 L 573 985 L 576 985 L 577 986 L 580 986 L 581 987 L 584 987 L 585 988 L 588 988 L 593 990 L 597 990 L 598 991 L 601 991 L 602 992 L 605 992 L 606 993 L 609 993 L 614 995 L 618 995 L 619 996 L 622 996 L 623 997 L 626 997 L 627 998 L 630 998 L 631 999 L 634 999 L 639 1001 L 643 1001 L 644 1002 L 647 1002 L 648 1003 L 651 1003 L 652 1004 L 655 1004 L 656 1005 L 659 1005 L 660 1006 L 663 1006 L 668 1008 L 672 1008 L 673 1009 L 676 1009 L 677 1010 L 680 1010 L 681 1011 L 684 1011 L 685 1012 L 688 1012 L 693 1014 L 697 1014 L 698 1015 L 701 1015 L 702 1016 L 705 1016 L 706 1017 L 709 1017 L 710 1018 L 713 1018 L 718 1020 L 722 1020 L 723 1021 L 726 1021 L 727 1022 L 730 1022 L 731 1023 L 734 1023 L 735 1024 L 738 1024 L 743 1026 L 747 1026 L 748 1027 L 751 1027 L 752 1028 L 755 1028 L 756 1029 L 759 1029 L 760 1030 L 763 1030 L 764 1031 L 767 1031 L 772 1033 L 776 1033 L 777 1034 L 780 1034 L 781 1035 L 784 1035 L 785 1036 L 788 1036 L 789 1037 L 792 1037 L 797 1039 L 801 1039 L 802 1040 L 805 1040 L 806 1041 L 809 1041 L 810 1042 L 813 1042 L 814 1043 L 817 1043 L 822 1045 L 826 1045 L 827 1046 L 830 1046 L 831 1047 L 834 1047 L 835 1048 L 838 1048 L 839 1049 L 842 1049 L 847 1051 L 851 1051 L 852 1052 L 855 1052 L 856 1053 L 859 1053 L 860 1054 L 863 1054 L 868 1056 L 872 1056 L 873 1057 L 876 1057 L 877 1058 L 880 1058 L 881 1059 L 884 1059 L 885 1060 L 888 1060 L 893 1062 L 897 1062 L 898 1063 L 901 1063 L 902 1064 L 905 1064 L 906 1065 L 909 1065 L 910 1066 L 913 1066 L 918 1068 L 922 1068 L 923 1069 L 926 1069 L 927 1070 L 930 1070 L 931 1071 L 934 1071 L 935 1072 L 938 1072 L 939 1073 L 942 1073 L 947 1075 L 951 1075 L 952 1076 L 955 1076 L 956 1077 L 959 1077 L 960 1078 L 963 1078 L 964 1079 L 967 1079 L 972 1081 L 976 1081 L 977 1082 L 980 1082 L 981 1083 L 984 1083 L 985 1084 L 988 1084 L 989 1085 L 992 1085 L 997 1087 L 1001 1087 L 1002 1088 L 1005 1088 L 1006 1089 L 1009 1089 L 1010 1090 L 1013 1090 L 1014 1091 L 1017 1091 L 1022 1093 L 1026 1093 L 1027 1094 L 1030 1094 L 1031 1095 L 1034 1095 L 1035 1096 L 1038 1096 L 1039 1097 L 1042 1097 L 1047 1099 L 1051 1099 L 1052 1100 L 1055 1100 L 1056 1101 L 1059 1101 L 1060 1102 L 1063 1102 L 1064 1103 L 1067 1103 L 1072 1105 L 1076 1105 L 1077 1106 L 1080 1106 L 1081 1107 L 1084 1107 L 1085 1108 L 1088 1108 L 1089 1109 L 1092 1109 L 1093 1110 L 1096 1110 L 1101 1112 L 1105 1112 L 1106 1113 L 1109 1113 L 1110 1114 L 1113 1114 L 1114 1115 L 1117 1115 L 1118 1116 L 1121 1116 L 1126 1118 L 1130 1118 L 1131 1119 L 1134 1119 L 1135 1120 L 1138 1120 L 1139 1121 L 1142 1121 L 1143 1122 L 1146 1122 L 1151 1124 L 1155 1124 L 1156 1125 L 1159 1125 L 1160 1126 L 1163 1126 L 1164 1127 L 1167 1127 L 1168 1128 L 1171 1128 L 1172 1129 L 1175 1129 L 1180 1131 L 1184 1131 L 1185 1132 L 1188 1132 L 1189 1133 L 1192 1133 L 1193 1134 L 1196 1134 L 1197 1135 L 1200 1135 L 1205 1137 L 1209 1137 L 1210 1138 L 1213 1138 L 1214 1139 L 1217 1139 L 1218 1140 L 1221 1140 L 1222 1141 L 1225 1141 L 1226 1142 L 1229 1142 L 1234 1144 L 1238 1144 L 1239 1145 L 1242 1145 L 1243 1146 L 1246 1146 L 1247 1147 L 1250 1147 L 1251 1148 L 1254 1148 L 1255 1149 L 1258 1149 L 1259 1150 L 1264 1151 L 1249 1143 L 1247 1141 L 1242 1139 L 1240 1137 L 1233 1134 L 1231 1132 L 1226 1130 L 1224 1128 L 1219 1126 L 1217 1124 L 1210 1121 L 1208 1119 L 1203 1117 L 1201 1115 L 1196 1113 L 1187 1107 L 1180 1104 L 1178 1102 L 1173 1100 L 1171 1098 L 1166 1096 L 1157 1090 L 1150 1087 L 1148 1085 L 1143 1083 L 1134 1077 L 1127 1074 L 1125 1072 L 1120 1070 L 1118 1068 L 1113 1066 L 1111 1064 L 1099 1058 L 1097 1056 L 1092 1054 L 1083 1048 L 1076 1045 L 1074 1043 L 1069 1041 L 1067 1039 L 1062 1037 L 1053 1031 L 1046 1028 L 1044 1026 L 1039 1024 L 1037 1022 L 1032 1020 L 1023 1014 L 1016 1011 L 1014 1009 L 1009 1007 L 1007 1005 L 1002 1003 L 993 997 L 986 994 L 984 992 L 979 990 L 977 988 L 972 986 L 963 980 L 956 977 L 954 975 L 949 973 L 940 967 L 933 964 L 931 962 L 926 960 L 924 958 L 919 956 L 910 950 L 903 947 L 901 945 L 896 943 L 894 941 L 889 939 L 880 933 L 873 930 L 871 928 L 859 922 L 852 917 L 850 917 L 848 915 L 841 912 L 839 910 L 834 908 L 832 906 L 827 904 L 818 898 L 811 895 L 809 893 L 804 891 L 802 889 L 797 887 L 788 881 L 781 878 L 779 876 L 774 874 L 772 872 L 767 870 L 758 864 L 751 861 L 749 859 L 744 857 L 735 851 L 728 848 L 726 846 L 721 844 L 719 842 L 714 840 L 705 834 L 698 831 L 696 829 L 691 827 L 689 825 L 684 823 L 675 817 L 668 814 L 666 812 L 661 810 L 659 808 L 654 806 L 645 800 L 638 797 L 636 795 L 631 793 L 629 791 L 624 789 L 615 783 L 608 780 L 599 774 L 592 771 L 590 769 L 585 767 L 583 765 L 564 755 L 560 751 L 560 749 L 558 746 L 558 744 L 556 741 L 556 739 L 554 736 L 554 734 L 552 731 L 552 729 L 550 726 L 550 724 L 548 721 L 548 719 L 546 716 L 546 714 L 544 711 L 544 709 L 542 706 L 542 704 L 540 701 L 540 699 L 538 696 L 538 694 L 536 691 L 536 689 L 534 686 L 534 684 L 532 681 L 532 679 L 530 676 L 530 674 L 528 671 L 528 669 L 526 666 L 526 664 L 524 661 L 524 659 L 522 656 L 522 654 L 520 651 L 520 649 L 518 646 L 518 644 L 516 641 L 516 639 L 514 636 L 514 634 L 512 631 L 512 629 L 510 626 L 508 619 L 505 614 L 505 612 L 503 609 L 503 607 L 501 604 L 501 602 L 499 599 L 499 597 L 497 594 L 497 592 L 495 589 L 495 587 L 493 584 L 493 582 L 491 579 L 491 577 L 489 574 L 489 572 L 487 569 L 487 567 L 485 564 L 485 562 L 483 559 L 483 557 L 481 554 L 481 552 L 479 549 L 479 547 L 477 544 L 477 542 L 475 539 L 475 537 L 473 534 L 473 532 L 471 529 L 471 527 L 469 524 L 469 522 L 467 519 L 467 517 L 465 514 L 465 512 L 463 509 L 463 507 L 461 504 L 461 502 L 459 499 L 459 497 L 457 494 L 457 492 L 455 489 L 455 487 L 453 484 L 453 482 L 451 479 L 451 477 L 449 474 L 449 472 L 447 469 L 447 467 L 445 464 L 445 462 L 443 459 L 443 457 L 441 454 L 441 452 L 439 449 L 439 447 L 437 444 L 437 442 L 435 439 L 435 437 L 433 434 L 433 432 L 431 429 L 431 427 L 426 417 L 426 415 L 424 412 L 424 410 L 422 407 L 422 405 L 420 402 L 420 400 L 418 397 L 418 395 Z" fill="currentColor" fill-rule="evenodd"/>
</svg>
