<svg xmlns="http://www.w3.org/2000/svg" viewBox="0 0 1121 816" width="1121" height="816">
  <path d="M 306 53 L 430 362 L 1050 713 L 1028 694 L 1027 694 L 1021 688 L 1014 683 L 1008 677 L 1001 672 L 988 660 L 981 655 L 968 643 L 961 638 L 948 626 L 941 621 L 935 615 L 928 610 L 922 604 L 915 599 L 902 587 L 895 582 L 882 570 L 875 565 L 862 553 L 855 548 L 842 536 L 835 531 L 822 519 L 815 514 L 802 502 L 795 497 L 782 485 L 775 480 L 762 468 L 755 463 L 742 451 L 735 446 L 722 434 L 721 434 L 709 423 L 702 418 L 689 406 L 688 406 L 663 384 L 662 384 L 650 373 L 649 373 L 643 367 L 636 362 L 623 350 L 616 345 L 603 333 L 596 328 L 583 316 L 576 311 L 563 299 L 562 299 L 492 231 L 491 231 L 445 186 L 444 186 L 430 172 L 430 171 L 429 171 L 419 161 L 418 161 Z M 245 24 L 244 28 L 237 42 L 237 44 L 234 49 L 234 51 L 230 58 L 230 60 L 224 72 L 224 74 L 220 81 L 220 83 L 217 88 L 217 90 L 213 97 L 213 99 L 207 111 L 207 113 L 203 120 L 203 122 L 200 127 L 200 129 L 197 134 L 197 136 L 186 159 L 186 161 L 183 166 L 183 168 L 180 173 L 180 175 L 177 180 L 177 182 L 173 189 L 173 191 L 166 205 L 166 207 L 163 212 L 163 214 L 159 221 L 159 223 L 156 228 L 156 230 L 153 235 L 153 237 L 149 244 L 149 246 L 146 251 L 146 253 L 143 258 L 143 260 L 132 283 L 132 285 L 129 290 L 129 292 L 126 297 L 126 299 L 122 306 L 122 308 L 119 313 L 119 315 L 116 320 L 116 322 L 105 345 L 105 347 L 102 352 L 102 354 L 99 359 L 99 361 L 88 384 L 88 386 L 85 391 L 85 393 L 82 398 L 82 400 L 78 407 L 78 409 L 75 414 L 75 416 L 72 421 L 72 423 L 68 430 L 68 432 L 65 437 L 65 439 L 62 444 L 62 446 L 58 453 L 58 455 L 51 469 L 51 471 L 48 476 L 48 478 L 45 483 L 45 485 L 41 492 L 41 494 L 38 499 L 38 501 L 35 506 L 35 508 L 31 515 L 31 517 L 28 522 L 28 524 L 24 532 L 25 534 L 28 534 L 33 536 L 37 536 L 38 537 L 41 537 L 42 538 L 45 538 L 46 539 L 49 539 L 50 540 L 53 540 L 58 542 L 62 542 L 63 543 L 66 543 L 67 544 L 70 544 L 71 545 L 74 545 L 79 547 L 83 547 L 84 548 L 87 548 L 88 549 L 91 549 L 92 550 L 95 550 L 100 552 L 104 552 L 105 553 L 108 553 L 109 554 L 112 554 L 113 555 L 116 555 L 117 556 L 120 556 L 125 558 L 129 558 L 130 559 L 133 559 L 134 560 L 137 560 L 138 561 L 141 561 L 146 563 L 150 563 L 151 564 L 154 564 L 155 565 L 158 565 L 159 566 L 162 566 L 163 567 L 166 567 L 171 569 L 175 569 L 176 570 L 179 570 L 180 571 L 183 571 L 184 572 L 187 572 L 192 574 L 196 574 L 197 575 L 200 575 L 201 576 L 204 576 L 205 577 L 208 577 L 209 578 L 212 578 L 217 580 L 221 580 L 222 581 L 225 581 L 226 582 L 229 582 L 230 583 L 233 583 L 234 584 L 237 584 L 242 586 L 246 586 L 247 587 L 250 587 L 251 588 L 254 588 L 255 589 L 258 589 L 259 590 L 262 590 L 263 591 L 266 591 L 271 593 L 275 593 L 276 594 L 279 594 L 280 595 L 283 595 L 284 596 L 287 596 L 288 597 L 291 597 L 296 599 L 300 599 L 301 600 L 304 600 L 305 601 L 308 601 L 309 602 L 312 602 L 313 603 L 316 603 L 321 605 L 325 605 L 326 606 L 329 606 L 330 607 L 333 607 L 334 608 L 337 608 L 338 609 L 341 609 L 346 611 L 350 611 L 351 612 L 354 612 L 355 613 L 358 613 L 359 614 L 362 614 L 363 615 L 366 615 L 371 617 L 375 617 L 376 618 L 379 618 L 380 619 L 383 619 L 384 620 L 387 620 L 388 621 L 391 621 L 396 623 L 400 623 L 401 624 L 404 624 L 405 625 L 408 625 L 409 626 L 412 626 L 413 627 L 416 627 L 417 628 L 420 628 L 425 630 L 429 630 L 430 631 L 433 631 L 434 632 L 437 632 L 438 633 L 441 633 L 446 635 L 450 635 L 451 636 L 454 636 L 455 637 L 458 637 L 459 638 L 462 638 L 463 639 L 466 639 L 471 641 L 475 641 L 476 642 L 479 642 L 480 643 L 483 643 L 484 644 L 487 644 L 488 645 L 491 645 L 492 646 L 495 646 L 500 648 L 504 648 L 505 649 L 508 649 L 509 650 L 512 650 L 513 651 L 516 651 L 517 652 L 520 652 L 525 654 L 529 654 L 530 655 L 533 655 L 534 656 L 537 656 L 538 657 L 541 657 L 542 658 L 545 658 L 550 660 L 554 660 L 555 661 L 558 661 L 559 662 L 562 662 L 563 663 L 566 663 L 567 664 L 570 664 L 575 666 L 579 666 L 580 667 L 583 667 L 584 668 L 587 668 L 588 669 L 591 669 L 592 670 L 595 670 L 596 671 L 599 671 L 604 673 L 608 673 L 609 674 L 612 674 L 613 675 L 616 675 L 617 676 L 620 676 L 621 677 L 624 677 L 629 679 L 633 679 L 634 680 L 637 680 L 638 681 L 641 681 L 642 682 L 645 682 L 646 683 L 649 683 L 654 685 L 658 685 L 659 686 L 662 686 L 663 687 L 666 687 L 667 688 L 670 688 L 671 689 L 674 689 L 679 691 L 683 691 L 684 692 L 687 692 L 688 693 L 691 693 L 692 694 L 695 694 L 700 696 L 704 696 L 705 697 L 708 697 L 709 698 L 712 698 L 713 699 L 716 699 L 717 700 L 720 700 L 725 702 L 729 702 L 730 703 L 733 703 L 734 704 L 737 704 L 738 705 L 741 705 L 742 706 L 745 706 L 750 708 L 754 708 L 755 709 L 758 709 L 759 710 L 762 710 L 763 711 L 766 711 L 767 712 L 770 712 L 771 713 L 774 713 L 779 715 L 783 715 L 784 716 L 787 716 L 788 717 L 791 717 L 792 718 L 795 718 L 796 719 L 799 719 L 804 721 L 808 721 L 809 722 L 812 722 L 813 723 L 816 723 L 817 724 L 820 724 L 821 725 L 824 725 L 829 727 L 833 727 L 834 728 L 837 728 L 838 729 L 841 729 L 842 730 L 845 730 L 846 731 L 849 731 L 854 733 L 858 733 L 859 734 L 862 734 L 863 735 L 866 735 L 867 736 L 870 736 L 871 737 L 874 737 L 879 739 L 883 739 L 884 740 L 887 740 L 888 741 L 891 741 L 892 742 L 895 742 L 896 743 L 899 743 L 904 745 L 908 745 L 909 746 L 912 746 L 913 747 L 916 747 L 917 748 L 920 748 L 921 749 L 924 749 L 925 750 L 928 750 L 933 752 L 937 752 L 938 753 L 941 753 L 942 754 L 945 754 L 946 755 L 949 755 L 950 756 L 953 756 L 958 758 L 962 758 L 963 759 L 966 759 L 967 760 L 970 760 L 971 761 L 974 761 L 975 762 L 978 762 L 983 764 L 987 764 L 988 765 L 991 765 L 992 766 L 995 766 L 996 767 L 999 767 L 1000 768 L 1003 768 L 1004 769 L 1007 769 L 1012 771 L 1016 771 L 1017 772 L 1020 772 L 1021 773 L 1024 773 L 1025 774 L 1028 774 L 1029 775 L 1032 775 L 1037 777 L 1041 777 L 1042 778 L 1045 778 L 1046 779 L 1049 779 L 1050 780 L 1053 780 L 1054 781 L 1057 781 L 1058 782 L 1061 782 L 1066 784 L 1070 784 L 1071 785 L 1074 785 L 1075 786 L 1078 786 L 1079 787 L 1082 787 L 1083 788 L 1086 788 L 1087 789 L 1090 789 L 1091 790 L 1096 791 L 1081 783 L 1079 781 L 1074 779 L 1072 777 L 1065 774 L 1063 772 L 1058 770 L 1056 768 L 1051 766 L 1049 764 L 1042 761 L 1040 759 L 1035 757 L 1033 755 L 1028 753 L 1019 747 L 1012 744 L 1010 742 L 1005 740 L 1003 738 L 998 736 L 989 730 L 982 727 L 980 725 L 975 723 L 966 717 L 959 714 L 957 712 L 952 710 L 950 708 L 945 706 L 943 704 L 931 698 L 929 696 L 924 694 L 915 688 L 908 685 L 906 683 L 901 681 L 899 679 L 894 677 L 885 671 L 878 668 L 876 666 L 871 664 L 869 662 L 864 660 L 855 654 L 848 651 L 846 649 L 841 647 L 839 645 L 834 643 L 825 637 L 818 634 L 816 632 L 811 630 L 809 628 L 804 626 L 795 620 L 788 617 L 786 615 L 781 613 L 772 607 L 765 604 L 763 602 L 758 600 L 756 598 L 751 596 L 742 590 L 735 587 L 733 585 L 728 583 L 726 581 L 721 579 L 712 573 L 705 570 L 703 568 L 691 562 L 684 557 L 682 557 L 680 555 L 673 552 L 671 550 L 666 548 L 664 546 L 659 544 L 650 538 L 643 535 L 641 533 L 636 531 L 634 529 L 629 527 L 620 521 L 613 518 L 611 516 L 606 514 L 604 512 L 599 510 L 590 504 L 583 501 L 581 499 L 576 497 L 567 491 L 560 488 L 558 486 L 553 484 L 551 482 L 546 480 L 537 474 L 530 471 L 528 469 L 523 467 L 521 465 L 516 463 L 507 457 L 500 454 L 498 452 L 493 450 L 491 448 L 486 446 L 477 440 L 470 437 L 468 435 L 463 433 L 461 431 L 456 429 L 447 423 L 440 420 L 431 414 L 424 411 L 422 409 L 417 407 L 415 405 L 396 395 L 392 391 L 392 389 L 390 386 L 390 384 L 388 381 L 388 379 L 386 376 L 386 374 L 384 371 L 384 369 L 382 366 L 382 364 L 380 361 L 380 359 L 378 356 L 378 354 L 376 351 L 376 349 L 374 346 L 374 344 L 372 341 L 372 339 L 370 336 L 370 334 L 368 331 L 368 329 L 366 326 L 366 324 L 364 321 L 364 319 L 362 316 L 362 314 L 360 311 L 360 309 L 358 306 L 358 304 L 356 301 L 356 299 L 354 296 L 354 294 L 352 291 L 352 289 L 350 286 L 350 284 L 348 281 L 348 279 L 346 276 L 346 274 L 344 271 L 344 269 L 342 266 L 340 259 L 337 254 L 337 252 L 335 249 L 335 247 L 333 244 L 333 242 L 331 239 L 331 237 L 329 234 L 329 232 L 327 229 L 327 227 L 325 224 L 325 222 L 323 219 L 323 217 L 321 214 L 321 212 L 319 209 L 319 207 L 317 204 L 317 202 L 315 199 L 315 197 L 313 194 L 313 192 L 311 189 L 311 187 L 309 184 L 309 182 L 307 179 L 307 177 L 305 174 L 305 172 L 303 169 L 303 167 L 301 164 L 301 162 L 299 159 L 299 157 L 297 154 L 297 152 L 295 149 L 295 147 L 293 144 L 293 142 L 291 139 L 291 137 L 289 134 L 289 132 L 287 129 L 287 127 L 285 124 L 285 122 L 283 119 L 283 117 L 281 114 L 281 112 L 279 109 L 279 107 L 277 104 L 277 102 L 275 99 L 275 97 L 273 94 L 273 92 L 271 89 L 271 87 L 269 84 L 269 82 L 267 79 L 267 77 L 265 74 L 265 72 L 263 69 L 263 67 L 258 57 L 258 55 L 256 52 L 256 50 L 254 47 L 254 45 L 252 42 L 252 40 L 250 37 L 250 35 Z" fill="currentColor" fill-rule="evenodd"/>
</svg>
