<svg xmlns="http://www.w3.org/2000/svg" viewBox="0 0 1960 529" width="1960" height="529">
  <path d="M 1135 421 L 1135 480 L 1140 480 L 1140 421 Z M 845 421 L 845 442 L 846 443 L 846 446 L 850 453 L 857 457 L 861 457 L 862 458 L 870 458 L 871 457 L 875 457 L 880 455 L 882 457 L 882 480 L 887 480 L 887 421 L 882 421 L 882 448 L 878 451 L 876 451 L 875 452 L 870 452 L 869 453 L 859 452 L 853 448 L 850 440 L 850 421 Z M 1415 420 L 1415 425 L 1433 425 L 1435 427 L 1435 480 L 1440 480 L 1440 426 L 1441 425 L 1461 425 L 1461 421 L 1460 420 Z M 1361 420 L 1361 480 L 1366 480 L 1366 454 L 1368 452 L 1397 452 L 1398 453 L 1398 480 L 1403 480 L 1403 420 L 1398 420 L 1398 447 L 1397 448 L 1368 448 L 1366 446 L 1366 420 Z M 1245 420 L 1245 480 L 1286 480 L 1287 481 L 1287 497 L 1288 498 L 1292 498 L 1293 475 L 1288 475 L 1287 474 L 1287 420 L 1282 420 L 1282 474 L 1281 475 L 1251 475 L 1250 474 L 1250 420 Z M 1159 420 L 1159 480 L 1164 480 L 1168 473 L 1175 463 L 1176 460 L 1183 450 L 1184 447 L 1188 442 L 1192 434 L 1194 432 L 1195 433 L 1195 468 L 1196 469 L 1195 470 L 1195 479 L 1196 480 L 1201 480 L 1201 421 L 1200 420 L 1196 420 L 1194 422 L 1191 428 L 1184 438 L 1183 441 L 1176 451 L 1175 454 L 1171 459 L 1167 467 L 1165 469 L 1164 468 L 1164 420 Z M 1079 420 L 1079 480 L 1104 480 L 1105 479 L 1109 479 L 1117 473 L 1120 467 L 1120 455 L 1117 449 L 1112 445 L 1107 443 L 1103 443 L 1102 442 L 1085 442 L 1084 441 L 1084 421 L 1083 420 Z M 1084 448 L 1085 447 L 1104 447 L 1109 449 L 1113 453 L 1115 457 L 1115 466 L 1112 471 L 1108 474 L 1106 474 L 1105 475 L 1085 475 L 1084 474 Z M 1018 420 L 1018 480 L 1023 480 L 1023 454 L 1025 452 L 1054 452 L 1055 453 L 1055 480 L 1060 480 L 1060 420 L 1055 420 L 1055 447 L 1054 448 L 1025 448 L 1023 446 L 1023 420 Z M 836 421 L 831 421 L 830 423 L 830 425 L 829 426 L 829 428 L 828 429 L 828 431 L 820 453 L 820 456 L 819 457 L 816 468 L 814 471 L 813 470 L 812 465 L 810 462 L 804 442 L 802 439 L 796 420 L 791 420 L 790 421 L 793 427 L 796 438 L 798 441 L 801 452 L 803 455 L 806 466 L 808 469 L 808 471 L 811 478 L 811 482 L 806 494 L 800 499 L 793 499 L 793 503 L 794 504 L 801 504 L 802 503 L 804 503 L 807 501 L 810 497 L 813 491 L 822 462 L 824 459 L 834 427 L 836 424 Z M 1504 421 L 1498 420 L 1497 419 L 1489 420 L 1484 422 L 1478 428 L 1477 427 L 1477 421 L 1476 420 L 1472 420 L 1472 503 L 1477 503 L 1477 474 L 1478 473 L 1482 477 L 1487 480 L 1490 480 L 1491 481 L 1499 481 L 1506 478 L 1511 473 L 1514 467 L 1515 461 L 1516 460 L 1516 440 L 1512 429 L 1510 426 Z M 1491 424 L 1496 424 L 1501 426 L 1507 432 L 1509 436 L 1510 443 L 1511 444 L 1511 457 L 1510 458 L 1509 465 L 1507 469 L 1501 475 L 1499 475 L 1498 476 L 1488 476 L 1484 474 L 1477 466 L 1477 435 L 1485 426 L 1490 425 Z M 1325 419 L 1324 420 L 1320 420 L 1315 422 L 1311 425 L 1311 426 L 1307 430 L 1304 436 L 1303 443 L 1302 444 L 1302 457 L 1303 458 L 1303 462 L 1306 469 L 1312 476 L 1319 480 L 1331 481 L 1341 477 L 1346 472 L 1346 470 L 1343 468 L 1337 474 L 1332 476 L 1323 476 L 1322 475 L 1320 475 L 1318 474 L 1310 465 L 1308 460 L 1308 456 L 1307 455 L 1307 451 L 1308 450 L 1348 450 L 1347 437 L 1344 429 L 1337 422 L 1333 420 Z M 1308 440 L 1311 433 L 1318 426 L 1323 424 L 1328 424 L 1333 426 L 1339 432 L 1342 439 L 1342 444 L 1341 445 L 1309 445 L 1308 444 Z M 924 419 L 923 420 L 919 420 L 914 422 L 906 430 L 902 439 L 902 444 L 901 445 L 901 457 L 902 458 L 902 462 L 905 469 L 911 476 L 919 480 L 922 480 L 923 481 L 930 481 L 940 477 L 945 472 L 945 470 L 942 468 L 936 474 L 931 476 L 922 476 L 921 475 L 919 475 L 917 474 L 909 465 L 909 463 L 907 460 L 907 455 L 906 454 L 906 452 L 908 450 L 947 450 L 946 437 L 943 429 L 940 425 L 932 420 Z M 907 440 L 910 433 L 917 426 L 922 424 L 928 424 L 932 426 L 938 432 L 941 439 L 941 444 L 940 445 L 908 445 L 907 444 Z M 1165 399 L 1165 402 L 1167 406 L 1171 410 L 1176 412 L 1184 412 L 1185 411 L 1187 411 L 1192 407 L 1194 402 L 1194 399 L 1190 399 L 1190 401 L 1188 405 L 1184 408 L 1175 408 L 1170 403 L 1169 399 Z M 1001 394 L 997 394 L 995 399 L 989 403 L 981 404 L 980 405 L 975 406 L 970 409 L 966 413 L 962 419 L 958 430 L 958 435 L 957 436 L 957 461 L 958 462 L 959 467 L 962 472 L 967 477 L 970 479 L 972 479 L 976 481 L 986 481 L 987 480 L 990 480 L 994 478 L 1001 471 L 1005 462 L 1005 456 L 1006 455 L 1005 443 L 1004 442 L 1003 437 L 1001 434 L 995 428 L 991 426 L 989 426 L 988 425 L 976 425 L 969 428 L 963 434 L 962 433 L 963 427 L 967 419 L 976 411 L 978 411 L 982 409 L 990 408 L 995 406 L 999 402 L 1001 397 Z M 977 429 L 985 429 L 992 432 L 996 436 L 1000 444 L 1000 451 L 1001 452 L 1000 453 L 1000 460 L 999 461 L 999 463 L 995 470 L 992 473 L 986 476 L 976 476 L 972 474 L 964 465 L 963 459 L 962 458 L 962 446 L 965 438 L 972 431 Z M 1734 222 L 1734 258 L 1733 259 L 1733 271 L 1732 272 L 1731 282 L 1725 295 L 1722 299 L 1715 306 L 1707 306 L 1707 360 L 1735 360 L 1736 359 L 1736 329 L 1737 328 L 1800 328 L 1801 329 L 1801 360 L 1828 360 L 1829 359 L 1829 307 L 1828 306 L 1814 306 L 1813 305 L 1813 222 Z M 1763 244 L 1784 244 L 1785 245 L 1785 305 L 1784 306 L 1751 306 L 1750 305 L 1756 292 L 1756 289 L 1759 281 L 1760 270 L 1761 269 L 1761 246 Z M 1599 222 L 1599 328 L 1626 328 L 1626 288 L 1628 286 L 1662 286 L 1663 287 L 1663 327 L 1664 328 L 1691 328 L 1691 222 L 1663 222 L 1663 263 L 1662 264 L 1627 264 L 1626 263 L 1626 222 Z M 1476 222 L 1403 222 L 1403 328 L 1430 328 L 1431 327 L 1431 245 L 1432 244 L 1476 244 Z M 1177 222 L 1177 328 L 1204 328 L 1205 327 L 1205 245 L 1206 244 L 1241 244 L 1242 245 L 1242 328 L 1270 328 L 1270 222 Z M 1855 229 L 1846 239 L 1843 246 L 1843 251 L 1842 253 L 1870 253 L 1872 246 L 1876 242 L 1881 240 L 1891 240 L 1896 242 L 1900 246 L 1903 254 L 1903 262 L 1902 263 L 1884 263 L 1883 264 L 1874 264 L 1873 265 L 1869 265 L 1868 266 L 1862 267 L 1851 273 L 1845 279 L 1842 285 L 1841 291 L 1840 292 L 1840 304 L 1841 305 L 1841 308 L 1845 316 L 1854 324 L 1862 328 L 1871 329 L 1872 330 L 1880 330 L 1881 329 L 1886 329 L 1887 328 L 1889 328 L 1897 324 L 1903 319 L 1905 322 L 1905 324 L 1907 328 L 1935 328 L 1935 326 L 1932 319 L 1932 315 L 1931 314 L 1931 252 L 1930 251 L 1930 246 L 1929 245 L 1929 243 L 1924 234 L 1915 226 L 1909 223 L 1903 222 L 1902 221 L 1898 221 L 1897 220 L 1879 220 L 1878 221 L 1874 221 L 1873 222 L 1870 222 L 1869 223 L 1864 224 Z M 1902 279 L 1903 280 L 1903 298 L 1899 303 L 1890 308 L 1885 308 L 1884 309 L 1876 308 L 1870 303 L 1868 299 L 1868 292 L 1870 287 L 1874 283 L 1884 279 Z M 1497 231 L 1491 238 L 1488 244 L 1487 253 L 1515 253 L 1515 249 L 1516 247 L 1521 242 L 1526 240 L 1535 240 L 1540 242 L 1545 247 L 1547 252 L 1547 262 L 1546 263 L 1528 263 L 1527 264 L 1519 264 L 1518 265 L 1514 265 L 1513 266 L 1510 266 L 1509 267 L 1504 268 L 1497 272 L 1489 280 L 1485 289 L 1485 295 L 1484 296 L 1485 306 L 1486 307 L 1487 312 L 1491 318 L 1494 321 L 1504 327 L 1506 327 L 1510 329 L 1516 329 L 1517 330 L 1524 330 L 1525 329 L 1530 329 L 1531 328 L 1536 327 L 1543 323 L 1547 319 L 1549 320 L 1549 323 L 1551 328 L 1579 328 L 1579 325 L 1576 317 L 1576 311 L 1575 310 L 1575 249 L 1574 248 L 1573 242 L 1570 236 L 1559 226 L 1553 223 L 1551 223 L 1547 221 L 1543 221 L 1542 220 L 1523 220 L 1522 221 L 1518 221 L 1517 222 L 1511 223 L 1501 228 Z M 1546 279 L 1547 280 L 1547 299 L 1541 305 L 1534 308 L 1529 308 L 1528 309 L 1526 309 L 1525 308 L 1521 308 L 1515 304 L 1512 298 L 1512 294 L 1513 293 L 1514 288 L 1520 282 L 1525 280 L 1528 280 L 1529 279 Z M 1304 229 L 1296 237 L 1292 245 L 1291 253 L 1319 253 L 1319 250 L 1321 246 L 1325 242 L 1330 240 L 1340 240 L 1346 243 L 1350 248 L 1350 250 L 1351 251 L 1351 256 L 1352 257 L 1352 262 L 1351 263 L 1333 263 L 1332 264 L 1323 264 L 1322 265 L 1318 265 L 1317 266 L 1311 267 L 1301 272 L 1292 282 L 1290 287 L 1290 290 L 1289 291 L 1289 305 L 1290 306 L 1290 309 L 1294 316 L 1304 325 L 1311 328 L 1320 329 L 1321 330 L 1328 330 L 1329 329 L 1338 328 L 1347 323 L 1351 319 L 1353 320 L 1354 325 L 1356 328 L 1383 328 L 1384 326 L 1382 323 L 1381 315 L 1380 314 L 1380 256 L 1379 255 L 1379 247 L 1378 246 L 1377 241 L 1372 233 L 1362 225 L 1358 224 L 1355 222 L 1347 221 L 1346 220 L 1328 220 L 1327 221 L 1322 221 L 1321 222 L 1313 224 Z M 1350 279 L 1352 281 L 1352 297 L 1345 305 L 1338 308 L 1330 309 L 1329 308 L 1325 308 L 1323 307 L 1318 302 L 1317 297 L 1316 296 L 1317 295 L 1317 291 L 1318 290 L 1318 288 L 1324 282 L 1329 280 L 1332 280 L 1333 279 Z M 1093 221 L 1092 222 L 1087 223 L 1076 229 L 1066 239 L 1061 248 L 1061 250 L 1059 253 L 1058 260 L 1057 261 L 1057 288 L 1058 289 L 1058 293 L 1059 294 L 1060 299 L 1062 302 L 1062 304 L 1064 306 L 1067 312 L 1078 322 L 1086 326 L 1088 326 L 1092 328 L 1095 328 L 1096 329 L 1106 329 L 1108 330 L 1109 329 L 1119 329 L 1120 328 L 1123 328 L 1124 327 L 1129 326 L 1138 321 L 1148 311 L 1154 300 L 1154 298 L 1156 294 L 1156 291 L 1157 290 L 1157 285 L 1158 284 L 1158 267 L 1157 266 L 1156 256 L 1155 255 L 1154 250 L 1152 247 L 1152 245 L 1148 239 L 1142 232 L 1132 225 L 1121 221 L 1117 221 L 1116 220 L 1098 220 L 1097 221 Z M 1102 242 L 1112 242 L 1119 245 L 1126 253 L 1129 261 L 1129 266 L 1130 267 L 1130 283 L 1129 284 L 1128 292 L 1123 301 L 1114 307 L 1101 307 L 1096 305 L 1089 298 L 1085 287 L 1085 282 L 1084 281 L 1084 270 L 1085 269 L 1085 263 L 1086 262 L 1087 256 L 1091 249 L 1094 246 Z M 1020 224 L 1016 223 L 1013 221 L 1009 221 L 1008 220 L 992 220 L 982 224 L 973 232 L 972 231 L 972 224 L 971 222 L 946 222 L 946 369 L 973 369 L 973 320 L 974 319 L 975 319 L 980 324 L 988 328 L 998 329 L 999 330 L 1001 330 L 1002 329 L 1010 329 L 1024 322 L 1031 315 L 1035 309 L 1040 296 L 1041 286 L 1042 285 L 1042 265 L 1041 264 L 1041 258 L 1040 257 L 1040 253 L 1039 252 L 1037 244 L 1032 235 Z M 988 242 L 997 242 L 1005 246 L 1011 254 L 1011 256 L 1013 260 L 1013 264 L 1014 265 L 1014 283 L 1013 284 L 1013 289 L 1012 290 L 1011 295 L 1009 299 L 1003 305 L 999 307 L 986 307 L 985 306 L 983 306 L 974 298 L 974 251 L 981 244 L 987 243 Z M 803 185 L 802 186 L 802 327 L 803 328 L 831 328 L 832 327 L 832 209 L 833 208 L 890 208 L 891 209 L 891 328 L 920 328 L 920 185 Z M 123 24 L 120 30 L 120 32 L 117 37 L 117 39 L 113 46 L 113 48 L 110 53 L 110 55 L 107 60 L 107 62 L 100 76 L 100 78 L 97 83 L 97 85 L 93 92 L 93 94 L 90 99 L 90 101 L 86 108 L 86 110 L 83 115 L 83 117 L 80 122 L 80 124 L 76 131 L 76 133 L 73 138 L 73 140 L 70 145 L 70 147 L 66 154 L 66 156 L 63 161 L 63 163 L 59 170 L 59 172 L 56 177 L 56 179 L 53 184 L 53 186 L 49 193 L 49 195 L 46 200 L 46 202 L 43 207 L 43 209 L 32 232 L 32 234 L 24 251 L 25 252 L 29 252 L 30 253 L 33 253 L 34 254 L 37 254 L 38 255 L 41 255 L 42 256 L 45 256 L 50 258 L 54 258 L 55 259 L 58 259 L 59 260 L 62 260 L 63 261 L 66 261 L 71 263 L 75 263 L 76 264 L 79 264 L 80 265 L 83 265 L 84 266 L 87 266 L 88 267 L 91 267 L 96 269 L 100 269 L 101 270 L 104 270 L 105 271 L 108 271 L 109 272 L 112 272 L 113 273 L 116 273 L 121 275 L 125 275 L 126 276 L 129 276 L 134 278 L 138 278 L 142 280 L 146 280 L 147 281 L 150 281 L 151 282 L 154 282 L 155 283 L 158 283 L 159 284 L 162 284 L 163 285 L 166 285 L 171 287 L 175 287 L 176 288 L 179 288 L 180 289 L 183 289 L 184 290 L 187 290 L 188 291 L 191 291 L 196 293 L 200 293 L 201 294 L 204 294 L 205 295 L 208 295 L 209 296 L 212 296 L 213 297 L 216 297 L 221 299 L 225 299 L 226 300 L 229 300 L 230 301 L 233 301 L 234 302 L 237 302 L 238 303 L 241 303 L 242 304 L 245 304 L 250 306 L 254 306 L 255 307 L 258 307 L 259 308 L 262 308 L 263 309 L 266 309 L 271 311 L 275 311 L 276 312 L 279 312 L 280 313 L 285 314 L 286 315 L 286 318 L 285 319 L 285 346 L 286 347 L 286 355 L 287 356 L 287 362 L 288 363 L 288 367 L 290 372 L 290 376 L 291 377 L 292 383 L 293 384 L 294 389 L 296 392 L 297 397 L 309 421 L 317 433 L 328 446 L 328 447 L 348 466 L 353 469 L 357 473 L 366 478 L 371 482 L 394 493 L 396 493 L 409 498 L 412 498 L 416 500 L 420 500 L 421 501 L 425 501 L 426 502 L 432 502 L 433 503 L 440 503 L 441 504 L 473 504 L 474 503 L 488 502 L 489 501 L 493 501 L 494 500 L 505 498 L 506 497 L 514 495 L 517 493 L 522 492 L 531 487 L 533 487 L 535 485 L 549 478 L 552 475 L 559 471 L 563 467 L 568 464 L 588 444 L 588 443 L 596 434 L 607 417 L 615 401 L 618 391 L 620 388 L 620 386 L 622 382 L 622 379 L 623 378 L 623 375 L 624 374 L 624 371 L 625 370 L 625 366 L 626 365 L 626 361 L 627 360 L 627 354 L 628 353 L 628 343 L 629 342 L 629 323 L 628 322 L 628 311 L 627 310 L 627 304 L 626 303 L 626 299 L 625 298 L 625 294 L 624 293 L 623 286 L 622 285 L 621 279 L 619 276 L 618 271 L 616 268 L 616 266 L 612 259 L 612 257 L 602 239 L 592 225 L 570 202 L 547 185 L 521 172 L 519 172 L 503 166 L 500 166 L 495 164 L 491 164 L 490 163 L 486 163 L 485 162 L 468 161 L 467 160 L 447 160 L 446 161 L 436 161 L 435 162 L 423 163 L 422 164 L 411 166 L 407 168 L 404 168 L 401 170 L 399 170 L 388 175 L 386 175 L 376 180 L 374 182 L 369 184 L 367 186 L 358 191 L 345 202 L 344 202 L 331 215 L 300 188 L 293 183 L 287 177 L 286 177 L 280 171 L 279 171 L 267 160 L 266 160 L 260 154 L 259 154 L 253 148 L 252 148 Z M 411 304 L 412 303 L 413 304 L 412 305 Z M 409 303 L 410 302 L 412 303 L 411 304 Z M 443 176 L 470 176 L 471 177 L 478 177 L 479 178 L 484 178 L 485 179 L 489 179 L 490 180 L 498 181 L 499 182 L 513 186 L 516 188 L 518 188 L 523 191 L 525 191 L 529 193 L 531 195 L 541 200 L 556 211 L 562 217 L 563 217 L 578 233 L 592 253 L 601 271 L 601 273 L 603 276 L 603 278 L 605 281 L 605 283 L 607 287 L 607 290 L 608 291 L 608 294 L 610 299 L 610 303 L 611 304 L 612 317 L 613 318 L 613 346 L 612 347 L 612 355 L 611 356 L 611 361 L 610 362 L 610 366 L 609 367 L 608 374 L 607 375 L 604 386 L 600 394 L 600 396 L 594 408 L 579 430 L 561 449 L 560 449 L 546 461 L 537 466 L 535 468 L 512 479 L 510 479 L 503 482 L 500 482 L 496 484 L 493 484 L 492 485 L 482 486 L 481 487 L 476 487 L 475 488 L 463 488 L 462 489 L 438 488 L 437 487 L 431 487 L 430 486 L 426 486 L 425 485 L 410 482 L 404 479 L 399 478 L 394 475 L 392 475 L 380 469 L 362 457 L 336 432 L 327 420 L 324 414 L 322 412 L 320 407 L 318 405 L 314 397 L 314 395 L 312 392 L 312 390 L 310 387 L 310 385 L 306 375 L 306 372 L 304 367 L 304 363 L 303 362 L 303 358 L 302 357 L 302 350 L 301 349 L 301 319 L 302 318 L 304 318 L 305 319 L 308 319 L 309 320 L 312 320 L 313 321 L 316 321 L 321 323 L 325 323 L 326 324 L 329 324 L 330 325 L 333 325 L 334 326 L 337 326 L 342 328 L 346 328 L 347 329 L 350 329 L 351 330 L 354 330 L 355 331 L 358 331 L 359 332 L 362 332 L 367 334 L 371 334 L 372 335 L 375 335 L 376 336 L 379 336 L 380 337 L 383 337 L 384 338 L 387 338 L 392 340 L 396 340 L 397 341 L 400 341 L 401 342 L 404 342 L 405 343 L 408 343 L 409 344 L 412 344 L 417 346 L 421 346 L 422 347 L 425 347 L 426 348 L 429 348 L 430 349 L 433 349 L 434 350 L 437 350 L 442 352 L 446 352 L 447 353 L 450 353 L 451 354 L 454 354 L 455 355 L 458 355 L 463 357 L 467 357 L 468 358 L 471 358 L 472 359 L 475 359 L 476 360 L 481 361 L 487 350 L 487 347 L 486 347 L 473 335 L 466 330 L 453 318 L 446 313 L 433 301 L 426 296 L 413 284 L 406 279 L 393 267 L 386 262 L 380 256 L 379 256 L 373 250 L 372 250 L 344 226 L 344 224 L 358 211 L 359 211 L 367 204 L 376 199 L 378 197 L 383 195 L 385 193 L 412 182 L 415 182 L 416 181 L 419 181 L 424 179 L 434 178 L 435 177 L 442 177 Z M 146 69 L 147 68 L 243 160 L 244 160 L 250 166 L 251 166 L 263 177 L 270 182 L 277 189 L 278 189 L 291 201 L 292 201 L 304 212 L 311 217 L 317 223 L 318 223 L 351 252 L 352 252 L 364 263 L 371 268 L 377 274 L 383 278 L 410 302 L 408 303 L 404 301 L 402 299 L 395 296 L 393 294 L 388 292 L 386 290 L 381 288 L 372 282 L 365 279 L 356 273 L 349 270 L 347 268 L 342 266 L 333 260 L 326 257 L 324 255 L 319 253 L 317 251 L 312 249 L 303 243 L 296 240 L 294 238 L 280 231 L 273 226 L 266 223 L 264 221 L 259 219 L 250 213 L 243 210 L 241 208 L 236 206 L 234 204 L 229 202 L 220 196 L 213 193 L 211 191 L 192 181 L 188 175 L 188 173 L 186 170 L 186 168 L 184 165 L 184 163 L 182 160 L 182 158 L 180 155 L 180 153 L 178 150 L 178 148 L 176 145 L 176 143 L 174 140 L 174 138 L 172 135 L 172 133 L 170 130 L 170 128 L 168 125 L 168 123 L 166 120 L 166 118 L 164 115 L 164 113 L 162 110 L 162 108 L 160 105 L 160 103 L 158 100 L 158 98 L 156 95 L 156 93 L 154 90 L 154 88 L 152 85 L 152 83 L 150 80 L 150 78 L 148 75 L 148 73 Z M 124 58 L 125 57 L 127 60 L 127 62 L 129 65 L 129 67 L 131 70 L 131 72 L 133 75 L 133 77 L 135 80 L 135 82 L 137 85 L 137 87 L 139 90 L 139 92 L 141 95 L 141 97 L 143 100 L 143 102 L 145 105 L 145 107 L 147 110 L 147 112 L 149 115 L 149 117 L 151 120 L 151 122 L 153 125 L 153 127 L 155 130 L 155 132 L 157 135 L 157 137 L 159 140 L 159 142 L 161 145 L 161 147 L 163 150 L 163 152 L 165 155 L 165 157 L 167 160 L 167 162 L 169 165 L 169 167 L 171 170 L 171 172 L 173 175 L 173 177 L 175 180 L 177 187 L 180 191 L 201 202 L 203 204 L 208 206 L 210 208 L 215 210 L 224 216 L 231 219 L 233 221 L 238 223 L 247 229 L 254 232 L 256 234 L 261 236 L 263 238 L 268 240 L 270 242 L 275 244 L 277 246 L 282 248 L 291 254 L 298 257 L 300 259 L 305 261 L 307 263 L 312 265 L 321 271 L 328 274 L 330 276 L 335 278 L 344 284 L 351 287 L 353 289 L 358 291 L 367 297 L 374 300 L 376 302 L 381 304 L 390 310 L 397 313 L 399 315 L 404 317 L 413 323 L 420 326 L 429 332 L 428 333 L 426 332 L 422 332 L 421 331 L 418 331 L 417 330 L 414 330 L 413 329 L 410 329 L 405 327 L 401 327 L 400 326 L 397 326 L 396 325 L 393 325 L 392 324 L 389 324 L 384 322 L 380 322 L 379 321 L 376 321 L 375 320 L 372 320 L 371 319 L 368 319 L 363 317 L 359 317 L 358 316 L 355 316 L 354 315 L 351 315 L 350 314 L 347 314 L 342 312 L 338 312 L 337 311 L 334 311 L 333 310 L 330 310 L 329 309 L 326 309 L 321 307 L 317 307 L 316 306 L 313 306 L 312 305 L 309 305 L 308 304 L 305 304 L 304 303 L 301 303 L 300 302 L 297 302 L 296 301 L 293 301 L 288 299 L 284 299 L 283 298 L 280 298 L 279 297 L 276 297 L 275 296 L 272 296 L 271 295 L 268 295 L 267 294 L 264 294 L 259 292 L 255 292 L 254 291 L 251 291 L 250 290 L 247 290 L 246 289 L 243 289 L 242 288 L 239 288 L 234 286 L 230 286 L 229 285 L 226 285 L 225 284 L 222 284 L 221 283 L 218 283 L 213 281 L 209 281 L 205 279 L 201 279 L 200 278 L 197 278 L 196 277 L 193 277 L 188 275 L 184 275 L 183 274 L 180 274 L 179 273 L 176 273 L 175 272 L 172 272 L 171 271 L 168 271 L 163 269 L 159 269 L 158 268 L 155 268 L 154 267 L 151 267 L 150 266 L 147 266 L 146 265 L 143 265 L 142 264 L 139 264 L 134 262 L 130 262 L 129 261 L 126 261 L 125 260 L 122 260 L 121 259 L 118 259 L 117 258 L 114 258 L 109 256 L 105 256 L 104 255 L 101 255 L 100 254 L 97 254 L 96 253 L 93 253 L 92 252 L 89 252 L 88 251 L 85 251 L 80 249 L 76 249 L 75 248 L 72 248 L 71 247 L 68 247 L 67 246 L 64 246 L 63 245 L 60 245 L 55 243 L 47 242 L 45 239 L 52 225 L 52 223 L 55 218 L 55 216 L 59 209 L 59 207 L 62 202 L 62 200 L 65 195 L 65 193 L 76 170 L 76 168 L 79 163 L 79 161 L 82 156 L 82 154 L 86 147 L 86 145 L 89 140 L 89 138 L 93 131 L 93 129 L 96 124 L 96 122 L 99 117 L 99 115 L 103 108 L 103 106 L 106 101 L 106 99 L 110 92 L 110 90 L 113 85 L 113 83 L 120 69 L 120 67 L 123 62 Z" fill="currentColor" fill-rule="evenodd"/>
</svg>
