<svg xmlns="http://www.w3.org/2000/svg" viewBox="0 0 1943 525" width="1943" height="525">
  <path d="M 1402 417 L 1402 422 L 1420 422 L 1421 423 L 1421 476 L 1427 476 L 1427 423 L 1428 422 L 1447 422 L 1447 417 Z M 1348 417 L 1348 476 L 1354 476 L 1354 450 L 1355 449 L 1384 449 L 1385 450 L 1385 476 L 1390 476 L 1390 417 L 1385 417 L 1385 442 L 1384 443 L 1355 443 L 1354 442 L 1354 417 Z M 1233 417 L 1233 476 L 1274 476 L 1275 477 L 1275 494 L 1280 494 L 1281 493 L 1281 471 L 1276 471 L 1275 470 L 1275 417 L 1270 417 L 1270 470 L 1269 471 L 1240 471 L 1239 470 L 1239 417 Z M 1148 417 L 1148 476 L 1154 476 L 1157 470 L 1164 460 L 1165 457 L 1172 447 L 1173 444 L 1177 439 L 1181 431 L 1183 429 L 1184 430 L 1184 476 L 1190 476 L 1190 417 L 1184 417 L 1183 418 L 1180 424 L 1176 429 L 1175 432 L 1173 434 L 1172 437 L 1168 442 L 1167 445 L 1165 447 L 1164 450 L 1160 455 L 1159 458 L 1157 460 L 1155 464 L 1153 463 L 1153 417 Z M 1124 417 L 1124 476 L 1129 476 L 1129 417 Z M 1068 417 L 1068 476 L 1097 476 L 1098 475 L 1102 474 L 1108 468 L 1110 464 L 1110 451 L 1107 445 L 1102 441 L 1098 440 L 1097 439 L 1094 439 L 1093 438 L 1075 438 L 1074 437 L 1074 417 Z M 1074 445 L 1075 444 L 1094 444 L 1095 445 L 1099 446 L 1103 450 L 1104 454 L 1105 455 L 1105 460 L 1104 461 L 1103 465 L 1099 469 L 1095 470 L 1094 471 L 1075 471 L 1074 470 Z M 1009 417 L 1008 418 L 1008 475 L 1009 476 L 1014 476 L 1014 450 L 1015 449 L 1044 449 L 1045 450 L 1045 476 L 1050 476 L 1051 475 L 1051 418 L 1050 417 L 1045 417 L 1045 442 L 1044 443 L 1015 443 L 1014 442 L 1014 417 Z M 837 417 L 837 438 L 838 439 L 839 445 L 841 447 L 841 448 L 844 451 L 848 453 L 850 453 L 851 454 L 865 454 L 866 453 L 872 452 L 873 453 L 873 476 L 879 476 L 879 417 L 873 417 L 873 445 L 870 447 L 867 447 L 866 448 L 859 448 L 858 449 L 857 448 L 851 448 L 849 447 L 844 442 L 844 440 L 843 439 L 843 417 Z M 829 417 L 823 417 L 822 419 L 822 421 L 821 422 L 821 424 L 820 425 L 820 427 L 819 428 L 819 430 L 818 431 L 818 433 L 817 434 L 817 436 L 815 440 L 815 443 L 814 444 L 814 446 L 813 447 L 813 449 L 812 450 L 812 452 L 811 453 L 811 455 L 810 456 L 810 458 L 809 459 L 809 461 L 807 465 L 806 465 L 804 462 L 804 460 L 803 459 L 803 457 L 802 456 L 802 454 L 801 453 L 801 451 L 800 450 L 800 448 L 799 447 L 797 439 L 795 436 L 795 434 L 794 433 L 794 431 L 793 430 L 793 428 L 792 427 L 790 419 L 789 417 L 783 417 L 785 425 L 787 428 L 787 430 L 788 431 L 790 439 L 792 442 L 792 444 L 793 445 L 795 453 L 797 456 L 797 458 L 798 459 L 800 467 L 803 473 L 803 479 L 802 480 L 802 482 L 801 483 L 801 485 L 799 489 L 795 493 L 793 494 L 791 494 L 790 495 L 786 495 L 786 500 L 795 500 L 799 497 L 800 497 L 800 496 L 802 494 L 806 486 L 806 484 L 807 483 L 807 481 L 808 480 L 808 478 L 809 477 L 809 475 L 810 474 L 810 472 L 811 471 L 811 469 L 812 468 L 812 466 L 813 465 L 813 463 L 814 462 L 816 454 L 818 451 L 818 449 L 819 448 L 819 446 L 820 445 L 820 443 L 821 442 L 821 440 L 822 439 L 822 437 L 823 436 L 823 434 L 824 433 L 824 431 L 825 430 L 825 428 L 826 427 L 826 425 L 827 424 L 827 422 L 828 421 Z M 1487 416 L 1475 416 L 1469 419 L 1464 424 L 1463 423 L 1463 417 L 1458 417 L 1458 499 L 1463 499 L 1463 471 L 1464 470 L 1465 470 L 1466 472 L 1470 475 L 1474 476 L 1475 477 L 1487 477 L 1493 474 L 1496 471 L 1500 464 L 1501 458 L 1502 457 L 1502 436 L 1501 435 L 1501 432 L 1496 422 L 1493 419 Z M 1478 421 L 1485 422 L 1491 426 L 1495 433 L 1495 435 L 1496 436 L 1496 440 L 1497 441 L 1497 452 L 1496 453 L 1495 461 L 1493 465 L 1488 470 L 1484 471 L 1483 472 L 1476 472 L 1475 471 L 1471 470 L 1467 467 L 1467 466 L 1464 463 L 1464 461 L 1463 460 L 1463 434 L 1464 433 L 1464 431 L 1470 424 L 1474 422 L 1477 422 Z M 1308 416 L 1307 417 L 1305 417 L 1303 419 L 1299 421 L 1293 429 L 1293 431 L 1291 434 L 1291 437 L 1290 438 L 1290 456 L 1291 457 L 1292 462 L 1296 469 L 1303 475 L 1307 476 L 1308 477 L 1322 477 L 1328 474 L 1334 468 L 1334 467 L 1331 464 L 1330 464 L 1330 465 L 1326 469 L 1322 471 L 1320 471 L 1319 472 L 1311 472 L 1310 471 L 1308 471 L 1299 463 L 1297 459 L 1297 457 L 1296 456 L 1295 448 L 1296 447 L 1335 447 L 1335 435 L 1334 434 L 1334 431 L 1331 425 L 1327 420 L 1319 416 Z M 1296 437 L 1297 436 L 1297 434 L 1299 430 L 1304 424 L 1308 422 L 1310 422 L 1311 421 L 1316 421 L 1317 422 L 1321 423 L 1327 429 L 1328 433 L 1329 434 L 1329 438 L 1330 440 L 1329 441 L 1297 441 L 1296 440 Z M 911 416 L 903 420 L 899 424 L 894 433 L 894 436 L 893 437 L 893 457 L 894 458 L 894 460 L 895 461 L 896 465 L 904 474 L 908 476 L 910 476 L 911 477 L 924 477 L 932 473 L 935 470 L 936 466 L 933 464 L 927 470 L 925 471 L 922 471 L 921 472 L 914 472 L 913 471 L 911 471 L 907 468 L 906 468 L 901 462 L 900 458 L 899 457 L 899 454 L 898 453 L 898 448 L 899 447 L 938 447 L 938 437 L 937 436 L 937 432 L 936 431 L 936 429 L 934 425 L 927 418 L 923 417 L 922 416 Z M 898 440 L 899 439 L 899 436 L 900 435 L 900 433 L 902 429 L 907 424 L 911 422 L 913 422 L 914 421 L 919 421 L 925 424 L 929 428 L 931 432 L 931 434 L 932 435 L 932 440 L 931 441 L 899 441 Z M 1154 395 L 1154 399 L 1155 400 L 1155 402 L 1158 406 L 1159 406 L 1163 409 L 1174 409 L 1178 407 L 1181 404 L 1183 400 L 1183 395 L 1179 395 L 1177 401 L 1175 403 L 1173 404 L 1170 404 L 1169 405 L 1168 404 L 1164 404 L 1162 403 L 1159 399 L 1159 396 L 1158 395 Z M 992 391 L 987 391 L 986 395 L 984 397 L 980 399 L 978 399 L 977 400 L 973 400 L 972 401 L 969 401 L 960 406 L 957 409 L 957 410 L 953 415 L 952 419 L 950 422 L 949 430 L 948 431 L 948 457 L 949 458 L 949 461 L 954 470 L 962 476 L 964 476 L 965 477 L 979 477 L 980 476 L 982 476 L 986 473 L 987 473 L 990 470 L 995 461 L 995 459 L 996 458 L 996 439 L 995 438 L 995 436 L 992 430 L 986 424 L 982 422 L 980 422 L 979 421 L 967 421 L 966 422 L 962 423 L 955 429 L 954 428 L 954 425 L 955 424 L 955 422 L 957 418 L 964 410 L 970 407 L 978 406 L 979 405 L 981 405 L 982 404 L 986 403 L 990 399 Z M 953 429 L 954 428 L 955 429 L 954 430 Z M 969 426 L 975 426 L 976 427 L 978 427 L 982 429 L 988 435 L 990 439 L 990 443 L 991 444 L 991 453 L 990 454 L 990 458 L 987 464 L 981 470 L 977 471 L 976 472 L 968 472 L 962 469 L 957 464 L 954 458 L 954 454 L 953 453 L 953 444 L 954 443 L 955 437 L 962 429 L 966 427 L 968 427 Z M 1718 220 L 1718 247 L 1717 248 L 1717 267 L 1716 268 L 1716 274 L 1715 275 L 1714 282 L 1712 285 L 1711 289 L 1709 291 L 1707 295 L 1700 303 L 1691 303 L 1691 357 L 1720 357 L 1720 326 L 1721 325 L 1783 325 L 1784 326 L 1784 357 L 1812 357 L 1812 303 L 1798 303 L 1797 302 L 1797 221 L 1796 220 Z M 1747 243 L 1768 243 L 1769 244 L 1769 301 L 1767 303 L 1735 303 L 1734 302 L 1738 295 L 1738 293 L 1740 290 L 1740 288 L 1742 284 L 1742 281 L 1743 280 L 1743 276 L 1744 275 L 1744 269 L 1745 268 L 1745 255 L 1746 254 L 1746 244 Z M 1584 220 L 1584 325 L 1612 325 L 1612 286 L 1613 285 L 1647 285 L 1648 286 L 1648 325 L 1676 325 L 1676 220 L 1648 220 L 1648 261 L 1647 262 L 1613 262 L 1612 261 L 1612 220 Z M 1462 220 L 1390 220 L 1390 325 L 1418 325 L 1418 243 L 1419 242 L 1462 242 Z M 1166 220 L 1166 325 L 1194 325 L 1194 243 L 1195 242 L 1229 242 L 1230 243 L 1230 325 L 1258 325 L 1258 220 Z M 1838 227 L 1831 234 L 1831 235 L 1829 237 L 1827 241 L 1827 243 L 1826 244 L 1826 248 L 1825 249 L 1825 251 L 1853 251 L 1855 245 L 1859 241 L 1863 239 L 1875 239 L 1879 241 L 1883 245 L 1884 247 L 1884 249 L 1885 250 L 1885 260 L 1884 261 L 1861 261 L 1860 262 L 1854 262 L 1853 263 L 1850 263 L 1849 264 L 1844 265 L 1836 269 L 1828 277 L 1824 285 L 1824 288 L 1823 289 L 1823 302 L 1824 303 L 1825 308 L 1827 312 L 1830 315 L 1830 316 L 1837 322 L 1843 325 L 1849 326 L 1850 327 L 1868 327 L 1869 326 L 1871 326 L 1872 325 L 1874 325 L 1878 323 L 1885 317 L 1887 318 L 1887 321 L 1889 325 L 1918 325 L 1916 321 L 1916 319 L 1915 318 L 1915 314 L 1914 313 L 1914 306 L 1913 305 L 1913 246 L 1912 245 L 1911 240 L 1908 234 L 1899 225 L 1898 225 L 1896 223 L 1892 222 L 1889 220 L 1881 219 L 1880 218 L 1861 218 L 1860 219 L 1856 219 L 1855 220 L 1852 220 L 1849 222 L 1847 222 Z M 1884 277 L 1885 278 L 1885 296 L 1883 298 L 1883 299 L 1878 303 L 1874 304 L 1873 305 L 1870 305 L 1869 306 L 1862 306 L 1861 305 L 1857 304 L 1852 299 L 1851 297 L 1851 290 L 1852 289 L 1852 287 L 1856 282 L 1857 282 L 1859 280 L 1861 280 L 1862 278 L 1870 278 L 1871 277 Z M 1482 230 L 1475 240 L 1475 242 L 1473 246 L 1473 251 L 1501 251 L 1501 248 L 1502 246 L 1504 244 L 1504 243 L 1508 240 L 1510 240 L 1511 239 L 1522 239 L 1523 240 L 1525 240 L 1530 244 L 1532 248 L 1532 251 L 1533 252 L 1533 260 L 1532 261 L 1508 261 L 1507 262 L 1502 262 L 1501 263 L 1498 263 L 1497 264 L 1489 266 L 1482 271 L 1481 271 L 1475 278 L 1472 284 L 1472 287 L 1471 288 L 1471 303 L 1472 304 L 1473 309 L 1476 313 L 1476 314 L 1485 322 L 1491 325 L 1496 326 L 1497 327 L 1515 327 L 1516 326 L 1519 326 L 1520 325 L 1524 324 L 1526 322 L 1530 320 L 1533 317 L 1535 319 L 1535 322 L 1537 325 L 1565 325 L 1565 323 L 1563 319 L 1563 316 L 1562 315 L 1562 310 L 1561 309 L 1561 248 L 1560 247 L 1560 244 L 1559 243 L 1558 238 L 1555 234 L 1555 233 L 1548 226 L 1547 226 L 1545 224 L 1539 221 L 1537 221 L 1533 219 L 1529 219 L 1528 218 L 1509 218 L 1508 219 L 1500 220 L 1499 221 L 1497 221 L 1494 223 L 1490 224 L 1483 230 Z M 1532 277 L 1533 278 L 1533 295 L 1532 297 L 1527 302 L 1521 305 L 1518 305 L 1517 306 L 1510 306 L 1509 305 L 1506 305 L 1500 300 L 1499 298 L 1499 289 L 1501 285 L 1505 281 L 1508 280 L 1510 278 L 1517 278 L 1518 277 Z M 1288 230 L 1281 240 L 1280 246 L 1279 247 L 1279 251 L 1307 251 L 1308 246 L 1314 240 L 1316 240 L 1317 239 L 1328 239 L 1329 240 L 1333 241 L 1336 244 L 1338 248 L 1338 250 L 1339 251 L 1339 260 L 1338 261 L 1314 261 L 1313 262 L 1308 262 L 1307 263 L 1304 263 L 1303 264 L 1295 266 L 1288 271 L 1287 271 L 1281 278 L 1279 282 L 1278 287 L 1277 288 L 1277 303 L 1282 314 L 1291 322 L 1297 325 L 1303 326 L 1304 327 L 1321 327 L 1322 326 L 1325 326 L 1326 325 L 1328 325 L 1332 323 L 1339 317 L 1341 319 L 1341 321 L 1343 325 L 1371 325 L 1371 322 L 1369 319 L 1369 316 L 1368 315 L 1368 309 L 1367 308 L 1367 248 L 1366 247 L 1366 243 L 1361 233 L 1354 226 L 1353 226 L 1351 224 L 1345 221 L 1343 221 L 1339 219 L 1335 219 L 1334 218 L 1315 218 L 1314 219 L 1306 220 L 1298 224 L 1296 224 L 1289 230 Z M 1338 277 L 1339 278 L 1339 296 L 1333 302 L 1327 305 L 1324 305 L 1323 306 L 1316 306 L 1315 305 L 1313 305 L 1309 303 L 1307 301 L 1307 300 L 1305 298 L 1305 289 L 1307 285 L 1311 281 L 1314 280 L 1316 278 L 1323 278 L 1324 277 Z M 1087 218 L 1086 219 L 1079 220 L 1067 226 L 1062 231 L 1060 232 L 1060 233 L 1056 237 L 1055 240 L 1053 242 L 1051 246 L 1051 248 L 1050 249 L 1050 251 L 1048 255 L 1048 259 L 1047 260 L 1047 270 L 1046 271 L 1046 274 L 1047 275 L 1047 286 L 1048 287 L 1048 290 L 1049 291 L 1050 297 L 1055 307 L 1058 310 L 1058 311 L 1068 320 L 1078 325 L 1081 325 L 1082 326 L 1085 326 L 1086 327 L 1108 327 L 1109 326 L 1112 326 L 1113 325 L 1118 324 L 1126 320 L 1135 312 L 1135 311 L 1140 305 L 1144 297 L 1145 291 L 1146 290 L 1146 286 L 1147 285 L 1147 260 L 1146 259 L 1146 255 L 1145 254 L 1145 252 L 1144 251 L 1144 249 L 1143 248 L 1143 246 L 1141 242 L 1139 240 L 1137 236 L 1128 227 L 1117 221 L 1115 221 L 1111 219 L 1107 219 L 1106 218 Z M 1091 241 L 1103 241 L 1109 244 L 1114 249 L 1117 255 L 1118 261 L 1119 262 L 1119 283 L 1118 284 L 1118 287 L 1117 288 L 1116 293 L 1115 295 L 1108 302 L 1104 304 L 1100 304 L 1099 305 L 1094 305 L 1093 304 L 1090 304 L 1083 300 L 1079 295 L 1077 291 L 1077 289 L 1076 288 L 1076 285 L 1075 284 L 1075 277 L 1074 276 L 1074 271 L 1075 270 L 1075 262 L 1076 261 L 1076 257 L 1077 256 L 1077 254 L 1080 250 L 1080 249 L 1086 243 L 1090 242 Z M 1006 220 L 1004 220 L 1003 219 L 999 219 L 998 218 L 983 218 L 982 219 L 977 220 L 971 223 L 965 229 L 963 228 L 963 221 L 962 220 L 937 220 L 936 221 L 936 365 L 937 366 L 964 366 L 965 365 L 965 319 L 966 318 L 972 323 L 976 325 L 981 326 L 982 327 L 1000 327 L 1001 326 L 1004 326 L 1007 324 L 1009 324 L 1011 322 L 1015 320 L 1020 315 L 1020 314 L 1023 311 L 1024 308 L 1027 304 L 1027 302 L 1029 299 L 1029 296 L 1031 292 L 1031 287 L 1032 286 L 1032 259 L 1031 258 L 1031 253 L 1030 252 L 1030 249 L 1029 248 L 1028 243 L 1024 235 L 1021 232 L 1021 231 L 1012 223 Z M 978 241 L 988 241 L 989 242 L 993 243 L 1000 250 L 1002 254 L 1002 256 L 1003 257 L 1003 261 L 1004 262 L 1004 283 L 1003 284 L 1003 288 L 1002 289 L 1002 291 L 999 297 L 994 302 L 990 304 L 986 304 L 985 305 L 976 304 L 970 301 L 966 297 L 965 295 L 965 250 L 969 245 L 970 245 L 974 242 L 977 242 Z M 795 183 L 795 325 L 824 325 L 824 208 L 825 207 L 881 207 L 882 208 L 882 325 L 912 325 L 912 184 L 911 183 Z M 121 24 L 121 26 L 115 38 L 115 40 L 112 45 L 112 47 L 109 52 L 109 54 L 105 61 L 105 63 L 98 77 L 98 79 L 95 84 L 95 86 L 92 91 L 92 93 L 88 100 L 88 102 L 85 107 L 85 109 L 82 114 L 82 116 L 78 123 L 78 125 L 71 139 L 71 141 L 68 146 L 68 148 L 65 153 L 65 155 L 61 162 L 61 164 L 58 169 L 58 171 L 55 176 L 55 178 L 51 185 L 51 187 L 44 201 L 44 203 L 41 208 L 41 210 L 38 215 L 38 217 L 34 224 L 34 226 L 31 231 L 31 233 L 28 238 L 28 240 L 24 247 L 24 250 L 30 251 L 31 252 L 34 252 L 35 253 L 38 253 L 39 254 L 42 254 L 43 255 L 47 255 L 48 256 L 51 256 L 52 257 L 55 257 L 56 258 L 59 258 L 60 259 L 63 259 L 64 260 L 68 260 L 69 261 L 72 261 L 73 262 L 76 262 L 77 263 L 80 263 L 81 264 L 84 264 L 85 265 L 88 265 L 89 266 L 93 266 L 94 267 L 97 267 L 98 268 L 101 268 L 102 269 L 105 269 L 106 270 L 109 270 L 110 271 L 113 271 L 114 272 L 118 272 L 119 273 L 122 273 L 123 274 L 126 274 L 127 275 L 130 275 L 131 276 L 134 276 L 135 277 L 138 277 L 139 278 L 146 278 L 148 280 L 151 280 L 152 281 L 155 281 L 156 282 L 159 282 L 160 283 L 163 283 L 164 284 L 167 284 L 168 285 L 172 285 L 173 286 L 176 286 L 177 287 L 180 287 L 181 288 L 184 288 L 185 289 L 188 289 L 189 290 L 192 290 L 193 291 L 197 291 L 198 292 L 201 292 L 202 293 L 205 293 L 206 294 L 209 294 L 210 295 L 213 295 L 214 296 L 217 296 L 218 297 L 221 297 L 222 298 L 226 298 L 227 299 L 230 299 L 231 300 L 234 300 L 235 301 L 238 301 L 239 302 L 242 302 L 243 303 L 246 303 L 247 304 L 251 304 L 252 305 L 255 305 L 256 306 L 259 306 L 260 307 L 263 307 L 264 308 L 267 308 L 268 309 L 276 310 L 277 311 L 280 311 L 283 313 L 282 315 L 282 344 L 283 345 L 283 353 L 284 354 L 285 365 L 286 366 L 287 373 L 289 377 L 289 380 L 290 381 L 292 389 L 294 392 L 294 394 L 296 397 L 296 399 L 303 413 L 305 415 L 307 420 L 309 422 L 311 426 L 314 429 L 316 433 L 325 443 L 325 444 L 346 464 L 347 464 L 350 467 L 354 469 L 360 474 L 370 479 L 372 481 L 380 485 L 382 485 L 387 488 L 389 488 L 392 490 L 394 490 L 395 491 L 397 491 L 398 492 L 400 492 L 404 494 L 407 494 L 411 496 L 414 496 L 415 497 L 425 498 L 426 499 L 433 499 L 434 500 L 469 500 L 470 499 L 478 499 L 479 498 L 489 497 L 490 496 L 493 496 L 494 495 L 501 494 L 502 493 L 504 493 L 505 492 L 513 490 L 527 483 L 529 483 L 531 481 L 538 478 L 540 476 L 543 475 L 545 473 L 552 469 L 559 463 L 560 463 L 579 445 L 579 444 L 589 433 L 593 426 L 596 423 L 597 420 L 602 413 L 609 399 L 609 397 L 612 392 L 612 390 L 613 389 L 613 387 L 614 386 L 614 384 L 615 383 L 615 381 L 617 377 L 617 374 L 618 373 L 618 370 L 619 369 L 619 366 L 620 365 L 620 361 L 621 360 L 621 354 L 622 353 L 622 346 L 623 345 L 623 314 L 622 313 L 622 306 L 621 305 L 621 300 L 620 299 L 620 295 L 619 294 L 618 286 L 616 282 L 616 279 L 615 278 L 614 273 L 610 265 L 610 263 L 600 243 L 598 241 L 597 238 L 595 236 L 591 229 L 587 225 L 587 224 L 583 220 L 583 219 L 574 210 L 573 208 L 572 208 L 557 194 L 556 194 L 553 191 L 552 191 L 541 183 L 515 170 L 513 170 L 512 169 L 510 169 L 509 168 L 507 168 L 506 167 L 504 167 L 503 166 L 501 166 L 497 164 L 493 164 L 492 163 L 488 163 L 487 162 L 483 162 L 482 161 L 478 161 L 477 160 L 468 160 L 467 159 L 436 159 L 435 160 L 428 160 L 427 161 L 422 161 L 421 162 L 417 162 L 416 163 L 413 163 L 412 164 L 405 165 L 404 166 L 402 166 L 401 167 L 393 169 L 385 173 L 383 173 L 371 179 L 369 181 L 366 182 L 364 184 L 361 185 L 359 187 L 352 191 L 344 198 L 343 198 L 337 204 L 336 204 L 328 212 L 327 212 L 318 204 L 317 204 L 312 199 L 311 199 L 305 193 L 304 193 L 298 187 L 297 187 L 292 182 L 291 182 L 278 170 L 277 170 L 272 165 L 271 165 L 265 159 L 264 159 L 259 154 L 258 154 L 243 140 L 242 140 L 219 117 L 218 117 L 172 72 L 171 72 L 125 27 L 124 27 L 122 25 L 122 24 Z M 418 328 L 419 327 L 421 328 L 420 329 Z M 403 299 L 404 298 L 405 299 L 404 300 Z M 400 297 L 402 296 L 404 298 L 402 299 Z M 434 176 L 445 176 L 446 175 L 462 175 L 463 176 L 472 176 L 473 177 L 479 177 L 480 178 L 484 178 L 485 179 L 488 179 L 489 180 L 496 181 L 497 182 L 505 184 L 508 186 L 510 186 L 515 189 L 517 189 L 529 195 L 531 197 L 534 198 L 536 200 L 540 202 L 543 205 L 544 205 L 547 208 L 548 208 L 552 212 L 553 212 L 570 229 L 570 230 L 575 235 L 575 236 L 578 239 L 578 240 L 586 251 L 588 256 L 590 258 L 591 262 L 596 271 L 596 273 L 598 276 L 598 278 L 599 279 L 599 281 L 600 282 L 600 284 L 602 288 L 602 291 L 603 292 L 603 295 L 604 296 L 604 300 L 605 301 L 605 306 L 606 307 L 606 314 L 607 315 L 607 344 L 606 345 L 606 353 L 605 354 L 605 358 L 604 359 L 604 363 L 603 364 L 603 367 L 602 368 L 601 375 L 598 381 L 597 386 L 594 391 L 594 393 L 588 405 L 586 407 L 585 410 L 583 412 L 579 419 L 573 426 L 573 427 L 565 435 L 565 436 L 551 449 L 550 449 L 542 456 L 541 456 L 536 460 L 533 461 L 531 463 L 528 464 L 526 466 L 518 470 L 516 470 L 511 473 L 509 473 L 506 475 L 504 475 L 503 476 L 501 476 L 500 477 L 498 477 L 494 479 L 486 480 L 485 481 L 482 481 L 481 482 L 476 482 L 475 483 L 468 483 L 467 484 L 437 484 L 436 483 L 424 482 L 423 481 L 420 481 L 419 480 L 415 480 L 411 478 L 408 478 L 407 477 L 399 475 L 396 473 L 394 473 L 391 471 L 389 471 L 379 466 L 377 464 L 372 462 L 370 460 L 363 456 L 356 450 L 355 450 L 348 443 L 347 443 L 332 427 L 332 426 L 328 422 L 328 421 L 320 410 L 319 407 L 317 405 L 310 391 L 310 389 L 308 386 L 308 384 L 307 383 L 307 381 L 306 380 L 306 378 L 305 377 L 305 375 L 303 371 L 303 368 L 302 367 L 302 364 L 301 363 L 301 359 L 300 358 L 300 353 L 299 352 L 299 345 L 298 344 L 298 317 L 299 316 L 301 316 L 302 317 L 305 317 L 306 318 L 309 318 L 310 319 L 313 319 L 314 320 L 317 320 L 318 321 L 322 321 L 323 322 L 326 322 L 327 323 L 330 323 L 331 324 L 334 324 L 335 325 L 338 325 L 339 326 L 343 326 L 344 327 L 347 327 L 348 328 L 351 328 L 352 329 L 355 329 L 356 330 L 359 330 L 360 331 L 363 331 L 364 332 L 368 332 L 369 333 L 372 333 L 373 334 L 376 334 L 377 335 L 380 335 L 381 336 L 384 336 L 385 337 L 389 337 L 390 338 L 393 338 L 394 339 L 397 339 L 398 340 L 401 340 L 402 341 L 405 341 L 406 342 L 409 342 L 410 343 L 414 343 L 415 344 L 418 344 L 419 345 L 422 345 L 423 346 L 426 346 L 427 347 L 430 347 L 431 348 L 435 348 L 436 349 L 439 349 L 440 350 L 443 350 L 444 351 L 447 351 L 448 352 L 451 352 L 452 353 L 455 353 L 456 354 L 460 354 L 461 355 L 464 355 L 465 356 L 468 356 L 469 357 L 472 357 L 473 358 L 477 358 L 483 346 L 483 345 L 479 341 L 478 341 L 465 329 L 464 329 L 459 324 L 458 324 L 445 312 L 444 312 L 439 307 L 438 307 L 425 295 L 424 295 L 419 290 L 418 290 L 412 284 L 411 284 L 405 278 L 404 278 L 399 273 L 398 273 L 392 267 L 391 267 L 385 261 L 384 261 L 379 256 L 378 256 L 372 250 L 371 250 L 365 244 L 364 244 L 358 238 L 357 238 L 341 224 L 341 223 L 353 211 L 354 211 L 362 204 L 363 204 L 371 198 L 374 197 L 376 195 L 392 187 L 394 187 L 397 185 L 399 185 L 400 184 L 402 184 L 403 183 L 405 183 L 409 181 L 412 181 L 413 180 L 416 180 L 417 179 L 420 179 L 421 178 L 425 178 L 426 177 L 433 177 Z M 146 71 L 147 70 L 161 84 L 162 84 L 185 107 L 186 107 L 209 130 L 210 130 L 233 153 L 234 153 L 242 161 L 243 161 L 249 167 L 250 167 L 255 172 L 256 172 L 269 184 L 270 184 L 282 195 L 283 195 L 288 200 L 289 200 L 295 206 L 296 206 L 302 212 L 303 212 L 308 217 L 309 217 L 315 223 L 316 223 L 321 228 L 322 228 L 328 234 L 329 234 L 335 240 L 336 240 L 341 245 L 342 245 L 348 251 L 349 251 L 355 257 L 356 257 L 361 262 L 362 262 L 368 268 L 369 268 L 374 273 L 375 273 L 380 278 L 381 278 L 388 285 L 389 285 L 394 290 L 395 290 L 401 296 L 399 297 L 395 295 L 393 293 L 386 290 L 384 288 L 379 286 L 377 284 L 370 281 L 368 279 L 363 277 L 361 275 L 356 273 L 354 271 L 347 268 L 345 266 L 340 264 L 338 262 L 333 260 L 331 258 L 326 256 L 324 254 L 317 251 L 315 249 L 310 247 L 308 245 L 303 243 L 301 241 L 296 239 L 294 237 L 287 234 L 285 232 L 280 230 L 278 228 L 273 226 L 271 224 L 264 221 L 262 219 L 255 216 L 253 214 L 248 212 L 246 210 L 241 208 L 239 206 L 234 204 L 232 202 L 225 199 L 223 197 L 218 195 L 216 193 L 211 191 L 209 189 L 204 187 L 202 185 L 190 179 L 187 175 L 187 173 L 185 170 L 185 168 L 183 165 L 183 163 L 181 160 L 181 158 L 179 155 L 179 153 L 177 150 L 177 148 L 175 145 L 175 143 L 173 140 L 173 138 L 171 135 L 171 133 L 169 130 L 169 128 L 167 125 L 167 123 L 165 120 L 165 118 L 163 115 L 163 113 L 161 110 L 161 108 L 159 105 L 159 103 L 157 100 L 157 98 L 155 95 L 155 93 L 153 90 L 153 88 L 151 85 L 151 83 L 149 80 L 149 78 L 147 75 Z M 122 60 L 124 58 L 125 59 L 125 61 L 127 64 L 127 66 L 129 69 L 129 71 L 131 74 L 131 76 L 133 79 L 133 81 L 135 84 L 135 86 L 137 89 L 137 91 L 139 94 L 139 96 L 141 99 L 141 101 L 143 104 L 143 106 L 145 109 L 145 111 L 147 114 L 147 116 L 149 119 L 149 121 L 151 124 L 151 126 L 153 129 L 153 131 L 155 134 L 155 136 L 157 139 L 157 141 L 159 144 L 159 146 L 161 149 L 161 151 L 163 154 L 163 156 L 165 159 L 165 161 L 167 164 L 167 166 L 169 169 L 169 171 L 171 174 L 171 176 L 173 179 L 173 181 L 175 184 L 175 186 L 179 191 L 184 193 L 186 195 L 191 197 L 193 199 L 198 201 L 200 203 L 207 206 L 209 208 L 214 210 L 216 212 L 221 214 L 223 216 L 228 218 L 230 220 L 237 223 L 239 225 L 244 227 L 246 229 L 251 231 L 253 233 L 258 235 L 260 237 L 269 241 L 271 243 L 276 245 L 278 247 L 283 249 L 285 251 L 290 253 L 292 255 L 297 257 L 299 259 L 306 262 L 308 264 L 313 266 L 315 268 L 320 270 L 322 272 L 327 274 L 329 276 L 333 278 L 335 278 L 338 281 L 343 283 L 345 285 L 350 287 L 352 289 L 357 291 L 359 293 L 366 296 L 368 298 L 373 300 L 375 302 L 380 304 L 382 306 L 387 308 L 389 310 L 396 313 L 398 315 L 403 317 L 405 319 L 410 321 L 412 323 L 417 325 L 419 327 L 418 328 L 415 328 L 414 327 L 411 327 L 410 326 L 406 326 L 405 325 L 402 325 L 401 324 L 398 324 L 397 323 L 394 323 L 393 322 L 390 322 L 389 321 L 386 321 L 385 320 L 381 320 L 380 319 L 377 319 L 376 318 L 373 318 L 372 317 L 369 317 L 368 316 L 365 316 L 364 315 L 361 315 L 360 314 L 356 314 L 355 313 L 352 313 L 351 312 L 348 312 L 347 311 L 344 311 L 343 310 L 340 310 L 339 309 L 336 309 L 335 308 L 331 308 L 330 307 L 327 307 L 326 306 L 323 306 L 322 305 L 319 305 L 318 304 L 315 304 L 314 303 L 311 303 L 310 302 L 306 302 L 305 301 L 302 301 L 301 300 L 298 300 L 297 299 L 294 299 L 293 298 L 290 298 L 289 297 L 286 297 L 285 296 L 282 296 L 281 295 L 277 295 L 276 294 L 273 294 L 272 293 L 269 293 L 268 292 L 265 292 L 264 291 L 261 291 L 260 290 L 256 290 L 255 289 L 252 289 L 251 288 L 248 288 L 247 287 L 244 287 L 243 286 L 240 286 L 239 285 L 236 285 L 235 284 L 231 284 L 230 283 L 227 283 L 226 282 L 223 282 L 222 281 L 219 281 L 218 280 L 215 280 L 214 279 L 211 279 L 210 278 L 207 278 L 206 277 L 202 277 L 201 276 L 198 276 L 197 275 L 194 275 L 193 274 L 190 274 L 189 273 L 186 273 L 185 272 L 181 272 L 180 271 L 177 271 L 176 270 L 173 270 L 172 269 L 169 269 L 168 268 L 165 268 L 164 267 L 161 267 L 160 266 L 156 266 L 155 265 L 152 265 L 151 264 L 148 264 L 147 263 L 144 263 L 143 262 L 140 262 L 139 261 L 136 261 L 135 260 L 131 260 L 130 259 L 127 259 L 126 258 L 123 258 L 122 257 L 119 257 L 118 256 L 115 256 L 114 255 L 111 255 L 110 254 L 106 254 L 105 253 L 102 253 L 101 252 L 98 252 L 97 251 L 94 251 L 93 250 L 90 250 L 89 249 L 86 249 L 85 248 L 81 248 L 80 247 L 77 247 L 76 246 L 73 246 L 72 245 L 69 245 L 68 244 L 65 244 L 64 243 L 61 243 L 60 242 L 56 242 L 55 241 L 52 241 L 51 240 L 48 240 L 46 239 L 45 237 L 48 232 L 48 230 L 51 225 L 51 223 L 55 216 L 55 214 L 58 209 L 58 207 L 61 202 L 61 200 L 65 193 L 65 191 L 68 186 L 68 184 L 72 177 L 72 175 L 75 170 L 75 168 L 78 163 L 78 161 L 82 154 L 82 152 L 85 147 L 85 145 L 88 140 L 88 138 L 92 131 L 92 129 L 95 124 L 95 122 L 98 117 L 98 115 L 102 108 L 102 106 L 105 101 L 105 99 L 109 92 L 109 90 L 112 85 L 112 83 L 115 78 L 115 76 L 119 69 L 119 67 L 122 62 Z" fill="currentColor" fill-rule="evenodd"/>
</svg>
